<svg xmlns="http://www.w3.org/2000/svg" style="display: none">
	<symbol id="icon-home" viewBox="0 0 24 24" fill="none" stroke="currentColor" stroke-width="2" stroke-linecap="round" stroke-linejoin="round">
		<path d="m3 10.5 9-7 9 7" />
		<path d="M5 10v10h14V10" />
		<path d="M9 20v-6h6v6" />
	</symbol>
	<symbol id="icon-plus" viewBox="0 0 24 24" fill="none" stroke="currentColor" stroke-width="2" stroke-linecap="round" stroke-linejoin="round">
		<path d="M12 5v14" />
		<path d="M5 12h14" />
	</symbol>
	<symbol id="icon-clock" viewBox="0 0 24 24" fill="none" stroke="currentColor" stroke-width="2" stroke-linecap="round" stroke-linejoin="round">
		<circle cx="12" cy="12" r="9" />
		<path d="M12 7v5l3 2" />
	</symbol>
	<symbol id="icon-settings" viewBox="0 0 24 24" fill="none" stroke="currentColor" stroke-width="2" stroke-linecap="round" stroke-linejoin="round">
		<path d="M12 15.5a3.5 3.5 0 1 0 0-7 3.5 3.5 0 0 0 0 7Z" />
		<path d="M19.4 15a1.7 1.7 0 0 0 .34 1.88l.05.05a2 2 0 1 1-2.83 2.83l-.05-.05A1.7 1.7 0 0 0 15 19.37a1.7 1.7 0 0 0-1 .63l-.03.05a2 2 0 0 1-3.46 0L10.48 20a1.7 1.7 0 0 0-1-.63 1.7 1.7 0 0 0-1.88.34l-.05.05a2 2 0 1 1-2.83-2.83l.05-.05A1.7 1.7 0 0 0 5.1 15a1.7 1.7 0 0 0-.63-1l-.05-.03a2 2 0 0 1 0-3.46l.05-.03a1.7 1.7 0 0 0 .63-1 1.7 1.7 0 0 0-.34-1.88l-.05-.05a2 2 0 1 1 2.83-2.83l.05.05A1.7 1.7 0 0 0 9.48 5.1a1.7 1.7 0 0 0 1-.63l.03-.05a2 2 0 0 1 3.46 0l.03.05a1.7 1.7 0 0 0 1 .63 1.7 1.7 0 0 0 1.88-.34l.05-.05a2 2 0 1 1 2.83 2.83l-.05.05a1.7 1.7 0 0 0-.34 1.88 1.7 1.7 0 0 0 .63 1l.05.03a2 2 0 0 1 0 3.46l-.05.03a1.7 1.7 0 0 0-.63 1Z" />
	</symbol>
	<symbol id="icon-search" viewBox="0 0 24 24" fill="none" stroke="currentColor" stroke-width="2" stroke-linecap="round" stroke-linejoin="round">
		<circle cx="11" cy="11" r="7" />
		<path d="m20 20-3.5-3.5" />
	</symbol>
</svg>
